<svg id="Layer_1" data-name="Layer 1" xmlns="http://www.w3.org/2000/svg" xmlns:xlink="http://www.w3.org/1999/xlink" viewBox="0 0 64 56"><defs><style>.cls-1{fill:url(#linear-gradient);}.cls-2{fill:url(#linear-gradient-2);}</style><linearGradient id="linear-gradient" y1="28" x2="64" y2="28" gradientUnits="userSpaceOnUse"><stop offset="0" stop-color="#fff"/><stop offset="1" stop-color="#fff"/></linearGradient><linearGradient id="linear-gradient-2" x1="25.86" y1="10.47" x2="41.5" y2="50.43" gradientUnits="userSpaceOnUse"><stop offset="0" stop-color="#fff"/><stop offset="0.38" stop-color="#fff" stop-opacity="0"/></linearGradient></defs><title>talkArtboard 1</title><g id="Comments"><path class="cls-1" d="M32,0C49.67,0,64,11.6,64,25.9a22.72,22.72,0,0,1-6.15,15.27L63.79,56l-25.2-5.08c-2.63.07-5.58.71-8.53.79h-1C11.92,51.72,0,39.94,0,25.9,0,11.6,14.33,0,32,0m0,4.65C16.56,4.65,4,14.14,4,25.8c0,12,10.62,21.05,24.7,21.05l.92,0c1.32,0,2.77-.21,4.3-.4,1.69-.21,3.44-.43,5.25-.48l.89,0,.87.17,14,2.82-1.25-3.09-1.83-4.57,3.3-3.65A17.71,17.71,0,0,0,60,25.8C60,14.14,47.44,4.65,32,4.65Z"/><path class="cls-2" d="M32,6.23C17.66,6.23,6,15,6,25.87,6,37,15.86,45.41,28.94,45.41h.85c1.22,0,2.57-.2,4-.37s3.2-.4,4.88-.45l.82,0,.81.16,13,2.62-1.15-2.87-1.7-4.24,3.06-3.39a16.48,16.48,0,0,0,4.51-11C58,15,46.34,6.23,32,6.23Z"/></g></svg>